<?xml version="1.0" encoding="UTF-8" standalone="no"?><!DOCTYPE svg PUBLIC "-//W3C//DTD SVG 1.1//EN" "http://www.w3.org/Graphics/SVG/1.1/DTD/svg11.dtd"><svg width="215px" height="37px" version="1.1" xmlns="http://www.w3.org/2000/svg" xmlns:xlink="http://www.w3.org/1999/xlink" xml:space="preserve" xmlns:serif="http://www.serif.com/" style="fill-rule:evenodd;clip-rule:evenodd;stroke-linejoin:round;stroke-miterlimit:2;"><rect id="Artboard1" x="0" y="0" width="215" height="36.491" style="fill:none;"/><clipPath id="_clip1"><rect x="0" y="0" width="215" height="36.491"/></clipPath><g clip-path="url(#_clip1)"><g><g><path d="M34.464,31.305c0,0.632 0.406,0.948 1.197,0.948c0.813,0 1.242,-0.316 1.242,-0.948l0,-13.955c0,-0.633 -0.407,-0.949 -1.175,-0.949c-0.835,0 -1.264,0.316 -1.264,0.949l0,13.955Z" style="fill:#002050;fill-rule:nonzero;"/><path d="M47.561,31.305c0,0.632 0.406,0.948 1.242,0.948c0.79,0 1.197,-0.316 1.197,-0.948l0,-12.939l6.142,0c0.767,0 1.151,-0.316 1.151,-0.949c0,-0.587 -0.384,-0.903 -1.151,-0.903l-14.746,0c-0.745,0 -1.129,0.316 -1.129,0.926c0,0.632 0.384,0.926 1.129,0.926l6.165,0l0,12.939Z" style="fill:#002050;fill-rule:nonzero;"/><path d="M63.074,31.147c0,-0.745 -0.451,-1.107 -1.332,-1.107c-0.903,0 -1.355,0.362 -1.355,1.107c0,0.745 0.452,1.106 1.332,1.106c0.904,0 1.355,-0.361 1.355,-1.106Z" style="fill:#002050;fill-rule:nonzero;"/><path d="M67.252,31.305c0,0.632 0.406,0.948 1.196,0.948c0.813,0 1.242,-0.316 1.242,-0.948l0,-13.955c0,-0.633 -0.406,-0.949 -1.174,-0.949c-0.835,0 -1.264,0.316 -1.264,0.949l0,13.955Z" style="fill:#002050;fill-rule:nonzero;"/><path d="M75.403,16.401c-0.835,0 -1.264,0.316 -1.264,0.971l0,13.933c0,0.632 0.406,0.948 1.197,0.948c0.813,0 1.242,-0.316 1.242,-0.948l0,-11.584l13.594,12.013c0.383,0.339 0.7,0.519 1.196,0.519c0.858,0 1.287,-0.316 1.287,-0.948l0,-13.978c0,-0.61 -0.406,-0.926 -1.219,-0.926c-0.813,0 -1.219,0.316 -1.219,0.926l0,11.584l-13.617,-12.013c-0.384,-0.339 -0.722,-0.497 -1.197,-0.497Z" style="fill:#002050;fill-rule:nonzero;"/><path d="M103.359,31.305c0,0.632 0.406,0.948 1.242,0.948c0.79,0 1.197,-0.316 1.197,-0.948l0,-12.939l6.142,0c0.768,0 1.151,-0.316 1.151,-0.949c0,-0.587 -0.383,-0.903 -1.151,-0.903l-14.746,0c-0.745,0 -1.129,0.316 -1.129,0.926c0,0.632 0.384,0.926 1.129,0.926l6.165,0l0,12.939Z" style="fill:#002050;fill-rule:nonzero;"/><path d="M132.308,32.14c0.768,0 1.152,-0.316 1.152,-0.926c0,-0.609 -0.384,-0.925 -1.152,-0.925l-9.168,0c-2.89,0 -4.29,-0.858 -4.29,-2.552l0,-2.597l13.458,0c0.723,0 1.084,-0.293 1.084,-0.881c0,-0.587 -0.361,-0.88 -1.084,-0.88l-13.458,0l0,-2.552c0,-1.648 1.377,-2.461 4.109,-2.461l3.985,0c0.745,0 1.129,-0.316 1.129,-0.926c0,-0.61 -0.384,-0.926 -1.129,-0.926l-4.03,0c-4.335,0 -6.503,1.423 -6.503,4.268l0,7.023c0,2.89 2.213,4.335 6.616,4.335l9.281,0Z" style="fill:#002050;fill-rule:nonzero;"/><path d="M175.415,32.027c0.362,0.181 0.52,0.226 0.859,0.226c0.79,0 1.241,-0.384 1.241,-0.971c0,-0.406 -0.203,-0.677 -0.677,-0.88l-10.478,-4.607l5.397,0c4.675,0 5.758,-1.265 5.758,-3.771l0,-1.671c0,-2.574 -1.083,-3.839 -5.758,-3.839l-10.613,0c-0.677,0 -1.039,0.271 -1.039,0.79l0,14.001c0,0.632 0.407,0.948 1.197,0.948c0.813,0 1.242,-0.316 1.242,-0.948l0,-5.284l12.871,6.006Zm-12.871,-13.503c0,-0.113 0.068,-0.158 0.181,-0.158l9.123,0c3.003,0 3.229,0.677 3.229,2.032l0,1.626c0,1.377 -0.226,2.055 -3.252,2.055l-9.281,0l0,-5.555Z" style="fill:#002050;fill-rule:nonzero;"/><path d="M197.561,27.737c0,1.694 -1.377,2.552 -4.155,2.552l-4.855,0c-2.777,0 -4.155,-0.858 -4.155,-2.552l0,-6.865c0,-1.671 1.378,-2.506 4.11,-2.506l4.945,0c2.733,0 4.11,0.835 4.11,2.506l0,6.865Zm-4.177,4.403c4.403,0 6.616,-1.445 6.616,-4.335l0,-6.978c0,-2.868 -2.168,-4.313 -6.503,-4.313l-5.036,0c-4.336,0 -6.503,1.445 -6.503,4.313l0,6.978c0,2.89 2.213,4.335 6.616,4.335l4.81,0Z" style="fill:#002050;fill-rule:nonzero;"/><path d="M34.464,31.305c0,0.632 0.406,0.948 1.197,0.948c0.813,0 1.242,-0.316 1.242,-0.948l0,-13.955c0,-0.633 -0.407,-0.949 -1.175,-0.949c-0.835,0 -1.264,0.316 -1.264,0.949l0,13.955Z" style="fill:#002050;fill-rule:nonzero;"/><path d="M47.561,31.305c0,0.632 0.406,0.948 1.242,0.948c0.79,0 1.197,-0.316 1.197,-0.948l0,-12.939l6.142,0c0.767,0 1.151,-0.316 1.151,-0.949c0,-0.587 -0.384,-0.903 -1.151,-0.903l-14.746,0c-0.745,0 -1.129,0.316 -1.129,0.926c0,0.632 0.384,0.926 1.129,0.926l6.165,0l0,12.939Z" style="fill:#002050;fill-rule:nonzero;"/><path d="M63.074,31.147c0,-0.745 -0.451,-1.107 -1.332,-1.107c-0.903,0 -1.355,0.362 -1.355,1.107c0,0.745 0.452,1.106 1.332,1.106c0.904,0 1.355,-0.361 1.355,-1.106Z" style="fill:#002050;fill-rule:nonzero;"/><path d="M67.252,31.305c0,0.632 0.406,0.948 1.196,0.948c0.813,0 1.242,-0.316 1.242,-0.948l0,-13.955c0,-0.633 -0.406,-0.949 -1.174,-0.949c-0.835,0 -1.264,0.316 -1.264,0.949l0,13.955Z" style="fill:#002050;fill-rule:nonzero;"/><path d="M75.403,16.401c-0.835,0 -1.264,0.316 -1.264,0.971l0,13.933c0,0.632 0.406,0.948 1.197,0.948c0.813,0 1.242,-0.316 1.242,-0.948l0,-11.584l13.594,12.013c0.383,0.339 0.7,0.519 1.196,0.519c0.858,0 1.287,-0.316 1.287,-0.948l0,-13.978c0,-0.61 -0.406,-0.926 -1.219,-0.926c-0.813,0 -1.219,0.316 -1.219,0.926l0,11.584l-13.617,-12.013c-0.384,-0.339 -0.722,-0.497 -1.197,-0.497Z" style="fill:#002050;fill-rule:nonzero;"/><path d="M103.359,31.305c0,0.632 0.406,0.948 1.242,0.948c0.79,0 1.197,-0.316 1.197,-0.948l0,-12.939l6.142,0c0.768,0 1.151,-0.316 1.151,-0.949c0,-0.587 -0.383,-0.903 -1.151,-0.903l-14.746,0c-0.745,0 -1.129,0.316 -1.129,0.926c0,0.632 0.384,0.926 1.129,0.926l6.165,0l0,12.939Z" style="fill:#002050;fill-rule:nonzero;"/><path d="M132.308,32.14c0.768,0 1.152,-0.316 1.152,-0.926c0,-0.609 -0.384,-0.925 -1.152,-0.925l-9.168,0c-2.89,0 -4.29,-0.858 -4.29,-2.552l0,-2.597l13.458,0c0.723,0 1.084,-0.293 1.084,-0.881c0,-0.587 -0.361,-0.88 -1.084,-0.88l-13.458,0l0,-2.552c0,-1.648 1.377,-2.461 4.109,-2.461l3.985,0c0.745,0 1.129,-0.316 1.129,-0.926c0,-0.61 -0.384,-0.926 -1.129,-0.926l-4.03,0c-4.335,0 -6.503,1.423 -6.503,4.268l0,7.023c0,2.89 2.213,4.335 6.616,4.335l9.281,0Z" style="fill:#002050;fill-rule:nonzero;"/><path d="M154.573,16.514c0.768,0 1.152,0.316 1.152,0.926c0,0.61 -0.384,0.926 -1.152,0.926l-10.636,0c-2.732,0 -4.109,0.813 -4.109,2.393l0,6.888c0,1.761 1.4,2.642 4.29,2.642l4.877,0c2.846,0 4.291,-0.881 4.291,-2.642l0,-3.342l-6.276,0c-0.632,0 -0.948,-0.334 -0.948,-0.984c0,-0.598 0.316,-0.914 0.948,-0.914l7.766,0c0.633,0 0.949,0.334 0.949,0.966l0,4.341c0,2.958 -2.236,4.426 -6.617,4.426l-5.103,0c-4.403,0 -6.616,-1.468 -6.616,-4.426l0,-7c0,-2.8 2.168,-4.2 6.503,-4.2l10.681,0Z" style="fill:#002050;fill-rule:nonzero;"/><path d="M175.415,32.027c0.362,0.181 0.52,0.226 0.859,0.226c0.79,0 1.241,-0.384 1.241,-0.971c0,-0.406 -0.203,-0.677 -0.677,-0.88l-10.478,-4.607l5.397,0c4.675,0 5.758,-1.265 5.758,-3.771l0,-1.671c0,-2.574 -1.083,-3.839 -5.758,-3.839l-10.613,0c-0.677,0 -1.039,0.271 -1.039,0.79l0,14.001c0,0.632 0.407,0.948 1.197,0.948c0.813,0 1.242,-0.316 1.242,-0.948l0,-5.284l12.871,6.006Zm-12.871,-13.503c0,-0.113 0.068,-0.158 0.181,-0.158l9.123,0c3.003,0 3.229,0.677 3.229,2.032l0,1.626c0,1.377 -0.226,2.055 -3.252,2.055l-9.281,0l0,-5.555Z" style="fill:#002050;fill-rule:nonzero;"/><path d="M197.561,27.737c0,1.694 -1.377,2.552 -4.155,2.552l-4.855,0c-2.777,0 -4.155,-0.858 -4.155,-2.552l0,-6.865c0,-1.671 1.378,-2.506 4.11,-2.506l4.945,0c2.733,0 4.11,0.835 4.11,2.506l0,6.865Zm-4.177,4.403c4.403,0 6.616,-1.445 6.616,-4.335l0,-6.978c0,-2.868 -2.168,-4.313 -6.503,-4.313l-5.036,0c-4.336,0 -6.503,1.445 -6.503,4.313l0,6.978c0,2.89 2.213,4.335 6.616,4.335l4.81,0Z" style="fill:#002050;fill-rule:nonzero;"/><path d="M23.448,12.168c0.488,0.068 0.856,0.467 0.879,0.964l0,22.391c-0.024,0.525 -0.436,0.943 -0.968,0.968l-22.391,0c-0.526,-0.025 -0.944,-0.446 -0.968,-0.968l0,-14.928c0.019,-0.419 0.185,-0.591 0.256,-0.669c0.034,-0.037 4.456,-4.442 6.659,-6.647l0.818,-0.817c0.291,-0.278 0.318,-0.281 0.698,-0.298l14.928,0c0.03,0.001 0.06,0.002 0.089,0.004Zm-15.989,3.305c-1.657,1.656 -3.313,3.313 -4.969,4.969l-0.554,0.554l0,13.559l20.455,0l0,-20.455l-13.558,0c-0.458,0.457 -0.916,0.915 -1.374,1.373Z" style="fill:url(#_Linear2);fill-rule:nonzero;"/><path d="M132.511,18.368c0.632,0 0.949,-0.309 0.949,-0.91c0,-0.618 -0.317,-0.944 -0.949,-0.944l-1.255,0c-0.633,0 -0.949,0.309 -0.949,0.893c0,0.635 0.316,0.961 0.949,0.961l1.255,0Z" style="fill:#00bcf2;fill-rule:nonzero;"/></g></g></g><defs><linearGradient id="_Linear2" x1="0" y1="0" x2="1" y2="0" gradientUnits="userSpaceOnUse" gradientTransform="matrix(18.4049,19.1915,-19.1915,18.4049,4.95427,16.3312)"><stop offset="0" style="stop-color:#00bcf2;stop-opacity:1"/><stop offset="1" style="stop-color:#002050;stop-opacity:1"/></linearGradient></defs></svg>